<?xml version="1.0" encoding="utf-8"?>
<!-- Generator: Adobe Illustrator 16.0.0, SVG Export Plug-In . SVG Version: 6.00 Build 0)  -->
<!DOCTYPE svg PUBLIC "-//W3C//DTD SVG 1.1//EN" "http://www.w3.org/Graphics/SVG/1.1/DTD/svg11.dtd">
<svg version="1.1" id="Layer_1" xmlns="http://www.w3.org/2000/svg" xmlns:xlink="http://www.w3.org/1999/xlink" x="0px" y="0px"
	 width="434.77px" height="54.34px" viewBox="0 0 434.77 54.34" enable-background="new 0 0 434.77 54.34" xml:space="preserve">
<g>
	<polyline points="120.75,54.34 114.66,54.34 114.66,48.25 108.69,48.25 108.69,42.28 	"/>
	<polygon points="12.06,0 12.06,54.34 5.97,54.34 5.97,48.25 0,48.25 0,5.97 5.97,5.97 5.97,0 	"/>
	<polygon points="66.41,0 66.41,54.34 60.31,54.34 60.31,48.25 54.34,48.25 54.34,5.97 60.31,5.97 60.31,0 	"/>
	<rect x="144.88" y="30.1" width="6.09" height="12.18"/>
	<rect x="181.19" y="12.06" width="5.98" height="42.28"/>
	<polygon points="283.79,0 283.79,54.34 277.82,54.34 277.82,48.25 271.73,48.25 271.73,5.97 277.82,5.97 277.82,0 	"/>
	<rect x="308.05" y="12.06" width="5.97" height="42.28"/>
	<rect x="362.39" y="30.1" width="5.97" height="12.18"/>
	<rect x="398.58" y="12.06" width="6.091" height="42.28"/>
	<rect x="90.53" y="12.06" width="6.1" height="42.28"/>
	<rect x="169.01" width="6.09" height="5.97"/>
	<rect x="163.04" y="5.97" width="5.97" height="6.09"/>
	<rect x="386.52" width="5.97" height="5.97"/>
	<rect x="380.43" y="5.97" width="6.09" height="6.09"/>
	<polygon points="229.45,0 229.45,54.34 223.48,54.34 223.48,48.25 217.38,48.25 217.38,5.97 223.48,5.97 223.48,0 	"/>
	<rect x="108.69" y="42.28" width="5.97" height="5.97"/>
	<rect x="114.66" y="48.25" width="6.09" height="6.09"/>
	<rect x="326.08" y="42.28" width="6.091" height="5.97"/>
	<rect x="332.17" y="48.25" width="5.979" height="6.09"/>
	<rect x="332.17" width="5.979" height="5.97"/>
	<rect x="326.08" y="5.97" width="6.091" height="24.13"/>
	<rect x="114.66" width="6.09" height="5.97"/>
	<rect x="108.69" y="5.97" width="5.97" height="24.13"/>
	<polygon fill="#079B97" points="54.34,0 54.34,12.06 24.197,12.06 24.12,24.12 42.28,24.12 42.28,36.19 24.197,36.19 24.197,54.34 
		12.06,54.34 12.06,48.25 5.97,48.25 5.97,5.97 12.06,5.97 12.06,0 	"/>
	<polygon fill="#079B97" points="108.69,0 108.69,54.34 96.63,54.34 96.63,12.06 78.47,12.06 78.47,24.12 90.53,24.12 90.53,36.19 
		78.47,36.19 78.47,54.34 66.41,54.34 66.41,48.25 60.31,48.25 60.31,5.97 66.41,5.97 66.41,0 	"/>
	<polygon fill="#079B97" points="163.04,0 163.04,12.06 132.82,12.06 132.82,18.03 163.04,18.03 163.04,54.34 120.75,54.34 
		120.75,48.25 114.66,48.25 114.66,42.28 150.97,42.28 150.97,30.1 114.66,30.1 114.66,5.97 120.75,5.97 120.75,0 	"/>
	<polygon fill="#079B97" points="217.38,0 217.38,12.06 199.23,12.06 199.23,54.34 187.17,54.34 187.17,12.06 169.01,12.06 
		169.01,5.97 175.1,5.97 175.1,0 	"/>
	<polygon fill="#079B97" points="271.73,0 271.73,12.06 241.51,12.06 241.51,42.28 271.73,42.28 271.73,54.34 229.45,54.34 
		229.45,48.25 223.48,48.25 223.48,5.97 229.45,5.97 229.45,0 	"/>
	<polygon fill="#079B97" points="326.08,0 326.08,54.34 313.802,54.34 313.802,12.06 295.86,12.06 295.86,24.12 308.072,24.12 
		308.072,36.19 295.86,36.19 295.86,54.34 283.79,54.34 283.79,48.25 277.82,48.25 277.82,5.97 283.79,5.97 283.79,0 	"/>
	<polygon fill="#079B97" points="380.43,0 380.43,12.06 350.33,12.06 350.33,18.03 380.43,18.03 380.43,54.34 338.15,54.34 
		338.15,48.25 332.17,48.25 332.17,42.28 368.36,42.28 368.36,30.1 332.17,30.1 332.17,5.97 338.15,5.97 338.15,0 	"/>
	<polygon fill="#079B97" points="434.77,0 434.77,12.06 416.74,12.06 416.74,54.34 404.67,54.34 404.67,12.06 386.52,12.06 
		386.52,5.97 392.49,5.97 392.49,0 	"/>
</g>
</svg>
