<?xml version="1.0" encoding="utf-8"?>
<!-- Generator: Adobe Illustrator 16.0.0, SVG Export Plug-In . SVG Version: 6.00 Build 0)  -->
<!DOCTYPE svg PUBLIC "-//W3C//DTD SVG 1.1//EN" "http://www.w3.org/Graphics/SVG/1.1/DTD/svg11.dtd">
<svg version="1.1" xmlns="http://www.w3.org/2000/svg" xmlns:xlink="http://www.w3.org/1999/xlink" x="0px" y="0px"
	 width="417.202px" height="52.13px" viewBox="0 0 417.202 52.13" enable-background="new 0 0 417.202 52.13" xml:space="preserve">
<g id="Layer_1" display="none">
	<g display="inline">
		<g id="XMLID_9_">
			<g>
				<rect x="388.207" y="-2.66" width="5.729" height="5.73"/>
				<rect x="388.207" y="-8.5" width="5.729" height="5.84"/>
				<rect x="382.356" y="-2.66" width="5.851" height="5.73"/>
				<rect x="382.356" y="-8.5" width="5.851" height="5.84"/>
				<rect x="376.627" y="-2.66" width="5.729" height="5.73"/>
				<rect x="376.627" y="-8.5" width="5.729" height="5.84"/>
				<rect x="370.787" y="37.9" width="5.84" height="5.73"/>
				<rect x="370.787" y="32.06" width="5.84" height="5.84"/>
				<rect x="370.787" y="26.33" width="5.84" height="5.73"/>
				<rect x="370.787" y="20.49" width="5.84" height="5.84"/>
				<rect x="370.787" y="14.64" width="5.84" height="5.85"/>
				<rect x="370.787" y="8.91" width="5.84" height="5.73"/>
				<rect x="370.787" y="3.07" width="5.84" height="5.84"/>
				<rect x="370.787" y="-2.66" width="5.84" height="5.73"/>
				<rect x="370.787" y="-8.5" width="5.84" height="5.84"/>
				<rect x="365.057" y="37.9" width="5.73" height="5.73"/>
				<rect x="365.057" y="32.06" width="5.73" height="5.84"/>
				<rect x="365.057" y="26.33" width="5.73" height="5.73"/>
				<rect x="365.057" y="20.49" width="5.73" height="5.84"/>
				<rect x="365.057" y="14.64" width="5.73" height="5.85"/>
				<rect x="365.057" y="8.91" width="5.73" height="5.73"/>
				<rect x="365.057" y="3.07" width="5.73" height="5.84"/>
				<rect x="365.057" y="-2.66" width="5.73" height="5.73"/>
				<rect x="365.057" y="-8.5" width="5.73" height="5.84"/>
				<rect x="359.217" y="-2.66" width="5.84" height="5.73"/>
				<rect x="359.217" y="-8.5" width="5.84" height="5.84"/>
				<rect x="353.367" y="-2.66" width="5.85" height="5.73"/>
				<rect x="353.367" y="-8.5" width="5.85" height="5.84"/>
				<rect x="347.637" y="-2.66" width="5.73" height="5.73"/>
				<rect x="347.637" y="-8.5" fill="#C8782B" width="5.73" height="5.84"/>
				<rect x="341.797" y="-2.66" fill="#C8782B" width="5.84" height="5.73"/>
				<rect x="336.067" y="37.9" width="5.729" height="5.73"/>
				<rect x="336.067" y="32.06" width="5.729" height="5.84"/>
				<rect x="336.067" y="26.33" width="5.729" height="5.73"/>
				<rect x="336.067" y="20.49" width="5.729" height="5.84"/>
				<rect x="336.067" y="14.64" width="5.729" height="5.85"/>
				<rect x="336.067" y="8.91" width="5.729" height="5.73"/>
				<rect x="336.067" y="-2.66" width="5.729" height="5.73"/>
				<rect x="336.067" y="-8.5" width="5.729" height="5.84"/>
				<rect x="330.227" y="37.9" width="5.841" height="5.73"/>
				<rect x="330.227" y="32.06" width="5.841" height="5.84"/>
				<rect x="330.227" y="26.33" width="5.841" height="5.73"/>
				<rect x="330.227" y="20.49" width="5.841" height="5.84"/>
				<rect x="330.227" y="14.64" width="5.841" height="5.85"/>
				<rect x="330.227" y="8.91" width="5.841" height="5.73"/>
				<rect x="330.227" y="-2.66" width="5.841" height="5.73"/>
				<rect x="330.227" y="-8.5" width="5.841" height="5.84"/>
				<rect x="324.497" y="37.9" width="5.729" height="5.73"/>
				<rect x="324.497" y="32.06" width="5.729" height="5.84"/>
				<rect x="324.497" y="14.64" width="5.729" height="5.85"/>
				<rect x="324.497" y="8.91" width="5.729" height="5.73"/>
				<rect x="324.497" y="-2.66" width="5.729" height="5.73"/>
				<rect x="324.497" y="-8.5" width="5.729" height="5.84"/>
				<rect x="318.646" y="37.9" width="5.851" height="5.73"/>
				<rect x="318.646" y="32.06" width="5.851" height="5.84"/>
				<rect x="318.646" y="14.64" width="5.851" height="5.85"/>
				<rect x="318.646" y="8.91" width="5.851" height="5.73"/>
				<rect x="318.646" y="-2.66" width="5.851" height="5.73"/>
				<rect x="318.646" y="-8.5" width="5.851" height="5.84"/>
				<rect x="312.917" y="37.9" width="5.729" height="5.73"/>
				<rect x="312.917" y="32.06" width="5.729" height="5.84"/>
				<rect x="312.917" y="14.64" width="5.729" height="5.85"/>
				<rect x="312.917" y="8.91" width="5.729" height="5.73"/>
				<rect x="312.917" y="-2.66" width="5.729" height="5.73"/>
				<rect x="312.917" y="-8.5" width="5.729" height="5.84"/>
				<rect x="307.077" y="37.9" width="5.84" height="5.73"/>
				<rect x="307.077" y="32.06" width="5.84" height="5.84"/>
				<rect x="307.077" y="14.64" width="5.84" height="5.85"/>
				<rect x="307.077" y="8.91" width="5.84" height="5.73"/>
				<rect x="307.077" y="3.07" width="5.84" height="5.84"/>
				<rect x="307.077" y="-2.66" width="5.84" height="5.73"/>
				<rect x="307.077" y="-8.5" width="5.84" height="5.84"/>
				<rect x="301.237" y="37.9" width="5.84" height="5.73"/>
				<rect x="301.237" y="32.06" width="5.84" height="5.84"/>
				<rect x="301.237" y="14.64" width="5.84" height="5.85"/>
				<rect x="301.237" y="8.91" width="5.84" height="5.73"/>
				<rect x="301.237" y="3.07" width="5.84" height="5.84"/>
				<rect x="301.237" y="-2.66" width="5.84" height="5.73"/>
				<rect x="301.237" y="-8.5" width="5.84" height="5.84"/>
				<rect x="295.507" y="37.9" fill="#C8782B" width="5.73" height="5.73"/>
				<rect x="295.507" y="32.06" width="5.73" height="5.84"/>
				<rect x="295.507" y="14.64" width="5.73" height="5.85"/>
				<rect x="295.507" y="8.91" width="5.73" height="5.73"/>
				<rect x="295.507" y="3.07" width="5.73" height="5.84"/>
				<rect x="295.507" y="-2.66" width="5.73" height="5.73"/>
				<rect x="295.507" y="-8.5" fill="#C8782B" width="5.73" height="5.84"/>
				<rect x="289.657" y="32.06" fill="#C8782B" width="5.85" height="5.84"/>
				<rect x="289.657" y="14.64" fill="#C8782B" width="5.85" height="5.85"/>
				<rect x="289.657" y="8.91" fill="#C8782B" width="5.85" height="5.73"/>
				<rect x="289.657" y="3.07" fill="#C8782B" width="5.85" height="5.84"/>
				<rect x="289.657" y="-2.66" fill="#C8782B" width="5.85" height="5.73"/>
				<rect x="283.937" y="37.9" width="5.721" height="5.73"/>
				<rect x="283.937" y="32.06" width="5.721" height="5.84"/>
				<rect x="283.937" y="26.33" width="5.721" height="5.73"/>
				<rect x="283.937" y="20.49" width="5.721" height="5.84"/>
				<rect x="283.937" y="14.64" width="5.721" height="5.85"/>
				<rect x="283.937" y="8.91" width="5.721" height="5.73"/>
				<rect x="283.937" y="3.07" width="5.721" height="5.84"/>
				<rect x="283.937" y="-2.66" width="5.721" height="5.73"/>
				<rect x="283.937" y="-8.5" width="5.721" height="5.84"/>
				<rect x="278.087" y="37.9" width="5.85" height="5.73"/>
				<rect x="278.087" y="32.06" width="5.85" height="5.84"/>
				<rect x="278.087" y="26.33" width="5.85" height="5.73"/>
				<rect x="278.087" y="20.49" width="5.85" height="5.84"/>
				<rect x="278.087" y="14.64" width="5.85" height="5.85"/>
				<rect x="278.087" y="8.91" width="5.85" height="5.73"/>
				<rect x="278.087" y="3.07" width="5.85" height="5.84"/>
				<rect x="278.087" y="-2.66" width="5.85" height="5.73"/>
				<rect x="278.087" y="-8.5" width="5.85" height="5.84"/>
				<rect x="272.356" y="-2.66" width="5.73" height="5.73"/>
				<rect x="272.356" y="-8.5" width="5.73" height="5.84"/>
				<rect x="266.517" y="20.49" width="5.84" height="5.84"/>
				<rect x="266.517" y="14.64" width="5.84" height="5.85"/>
				<rect x="266.517" y="-2.66" width="5.84" height="5.73"/>
				<rect x="266.517" y="-8.5" width="5.84" height="5.84"/>
				<rect x="260.667" y="20.49" width="5.85" height="5.84"/>
				<rect x="260.667" y="14.64" width="5.85" height="5.85"/>
				<rect x="260.667" y="-2.66" width="5.85" height="5.73"/>
				<rect x="260.667" y="-8.5" width="5.85" height="5.84"/>
				<rect x="254.947" y="37.9" width="5.72" height="5.73"/>
				<rect x="254.947" y="32.06" width="5.72" height="5.84"/>
				<rect x="254.947" y="26.33" width="5.72" height="5.73"/>
				<rect x="254.947" y="20.49" width="5.72" height="5.84"/>
				<rect x="254.947" y="14.64" width="5.72" height="5.85"/>
				<rect x="254.947" y="8.91" width="5.72" height="5.73"/>
				<rect x="254.947" y="3.07" width="5.72" height="5.84"/>
				<rect x="254.947" y="-2.66" width="5.72" height="5.73"/>
				<rect x="254.947" y="-8.5" width="5.72" height="5.84"/>
				<rect x="249.097" y="37.9" width="5.851" height="5.73"/>
				<rect x="249.097" y="32.06" width="5.851" height="5.84"/>
				<rect x="249.097" y="26.33" width="5.851" height="5.73"/>
				<rect x="249.097" y="20.49" width="5.851" height="5.84"/>
				<rect x="249.097" y="14.64" width="5.851" height="5.85"/>
				<rect x="249.097" y="8.91" width="5.851" height="5.73"/>
				<rect x="249.097" y="3.07" width="5.851" height="5.84"/>
				<rect x="249.097" y="-2.66" width="5.851" height="5.73"/>
				<rect x="249.097" y="-8.5" width="5.851" height="5.84"/>
				<rect x="243.367" y="37.9" fill="#C8782B" width="5.729" height="5.73"/>
				<rect x="243.367" y="32.06" width="5.729" height="5.84"/>
				<rect x="243.367" y="26.33" width="5.729" height="5.73"/>
				<rect x="243.367" y="20.49" width="5.729" height="5.84"/>
				<rect x="243.367" y="14.64" width="5.729" height="5.85"/>
				<rect x="243.367" y="8.91" width="5.729" height="5.73"/>
				<rect x="243.367" y="3.07" width="5.729" height="5.84"/>
				<rect x="243.367" y="-2.66" width="5.729" height="5.73"/>
				<rect x="243.367" y="-8.5" fill="#C8782B" width="5.729" height="5.84"/>
				<rect x="237.527" y="32.06" fill="#C8782B" width="5.84" height="5.84"/>
				<rect x="237.527" y="26.33" fill="#C8782B" width="5.84" height="5.73"/>
				<rect x="237.527" y="20.49" fill="#C8782B" width="5.84" height="5.84"/>
				<rect x="237.527" y="14.64" fill="#C8782B" width="5.84" height="5.85"/>
				<rect x="237.527" y="8.91" fill="#C8782B" width="5.84" height="5.73"/>
				<rect x="237.527" y="3.07" fill="#C8782B" width="5.84" height="5.84"/>
				<rect x="237.527" y="-2.66" fill="#C8782B" width="5.84" height="5.73"/>
				<rect x="231.797" y="37.9" width="5.73" height="5.73"/>
				<rect x="231.797" y="32.06" width="5.73" height="5.84"/>
				<rect x="231.797" y="-2.66" width="5.73" height="5.73"/>
				<rect x="231.797" y="-8.5" width="5.73" height="5.84"/>
				<rect x="225.957" y="37.9" width="5.84" height="5.73"/>
				<rect x="225.957" y="32.06" width="5.84" height="5.84"/>
				<rect x="225.957" y="-2.66" width="5.84" height="5.73"/>
				<rect x="225.957" y="-8.5" width="5.84" height="5.84"/>
				<rect x="220.107" y="37.9" width="5.85" height="5.73"/>
				<rect x="220.107" y="32.06" width="5.85" height="5.84"/>
				<rect x="220.107" y="-2.66" width="5.85" height="5.73"/>
				<rect x="220.107" y="-8.5" width="5.85" height="5.84"/>
				<rect x="214.377" y="37.9" width="5.73" height="5.73"/>
				<rect x="214.377" y="32.06" width="5.73" height="5.84"/>
				<rect x="214.377" y="-2.66" width="5.73" height="5.73"/>
				<rect x="214.377" y="-8.5" width="5.73" height="5.84"/>
				<rect x="208.537" y="37.9" width="5.84" height="5.73"/>
				<rect x="208.537" y="32.06" width="5.84" height="5.84"/>
				<rect x="208.537" y="-2.66" width="5.84" height="5.73"/>
				<rect x="208.537" y="-8.5" width="5.84" height="5.84"/>
				<rect x="202.807" y="37.9" width="5.73" height="5.73"/>
				<rect x="202.807" y="32.06" width="5.73" height="5.84"/>
				<rect x="202.807" y="26.33" width="5.73" height="5.73"/>
				<rect x="202.807" y="20.49" width="5.73" height="5.84"/>
				<rect x="202.807" y="14.64" width="5.73" height="5.85"/>
				<rect x="202.807" y="8.91" width="5.73" height="5.73"/>
				<rect x="202.807" y="3.07" width="5.73" height="5.84"/>
				<rect x="202.807" y="-2.66" width="5.73" height="5.73"/>
				<rect x="202.807" y="-8.5" width="5.73" height="5.84"/>
				<rect x="196.967" y="37.9" width="5.84" height="5.73"/>
				<rect x="196.967" y="32.06" width="5.84" height="5.84"/>
				<rect x="196.967" y="26.33" width="5.84" height="5.73"/>
				<rect x="196.967" y="20.49" width="5.84" height="5.84"/>
				<rect x="196.967" y="14.64" width="5.84" height="5.85"/>
				<rect x="196.967" y="8.91" width="5.84" height="5.73"/>
				<rect x="196.967" y="3.07" width="5.84" height="5.84"/>
				<rect x="196.967" y="-2.66" width="5.84" height="5.73"/>
				<rect x="196.967" y="-8.5" width="5.84" height="5.84"/>
				<rect x="191.237" y="37.9" fill="#C8782B" width="5.73" height="5.73"/>
				<rect x="191.237" y="32.06" width="5.73" height="5.84"/>
				<rect x="191.237" y="26.33" width="5.73" height="5.73"/>
				<rect x="191.237" y="20.49" width="5.73" height="5.84"/>
				<rect x="191.237" y="14.64" width="5.73" height="5.85"/>
				<rect x="191.237" y="8.91" width="5.73" height="5.73"/>
				<rect x="191.237" y="3.07" width="5.73" height="5.84"/>
				<rect x="191.237" y="-2.66" width="5.73" height="5.73"/>
				<rect x="191.237" y="-8.5" fill="#C8782B" width="5.73" height="5.84"/>
				<rect x="185.387" y="32.06" fill="#C8782B" width="5.85" height="5.84"/>
				<rect x="185.387" y="26.33" fill="#C8782B" width="5.85" height="5.73"/>
				<rect x="185.387" y="20.49" fill="#C8782B" width="5.85" height="5.84"/>
				<rect x="185.387" y="14.64" fill="#C8782B" width="5.85" height="5.85"/>
				<rect x="185.387" y="8.91" fill="#C8782B" width="5.85" height="5.73"/>
				<rect x="185.387" y="3.07" fill="#C8782B" width="5.85" height="5.84"/>
				<rect x="185.387" y="-2.66" fill="#C8782B" width="5.85" height="5.73"/>
				<rect x="179.547" y="-2.66" width="5.84" height="5.73"/>
				<rect x="179.547" y="-8.5" width="5.84" height="5.84"/>
				<rect x="173.817" y="-2.66" width="5.73" height="5.73"/>
				<rect x="173.817" y="-8.5" width="5.73" height="5.84"/>
				<rect x="167.977" y="-2.66" width="5.84" height="5.73"/>
				<rect x="167.977" y="-8.5" width="5.84" height="5.84"/>
				<rect x="162.247" y="37.9" width="5.73" height="5.73"/>
				<rect x="162.247" y="32.06" width="5.73" height="5.84"/>
				<rect x="162.247" y="26.33" width="5.73" height="5.73"/>
				<rect x="162.247" y="20.49" width="5.73" height="5.84"/>
				<rect x="162.247" y="14.64" width="5.73" height="5.85"/>
				<rect x="162.247" y="8.91" width="5.73" height="5.73"/>
				<rect x="162.247" y="3.07" width="5.73" height="5.84"/>
				<rect x="162.247" y="-2.66" width="5.73" height="5.73"/>
				<rect x="162.247" y="-8.5" width="5.73" height="5.84"/>
				<rect x="156.397" y="37.9" width="5.85" height="5.73"/>
				<rect x="156.397" y="32.06" width="5.85" height="5.84"/>
				<rect x="156.397" y="26.33" width="5.85" height="5.73"/>
				<rect x="156.397" y="20.49" width="5.85" height="5.84"/>
				<rect x="156.397" y="14.64" width="5.85" height="5.85"/>
				<rect x="156.397" y="8.91" width="5.85" height="5.73"/>
				<rect x="156.397" y="3.07" width="5.85" height="5.84"/>
				<rect x="156.397" y="-2.66" width="5.85" height="5.73"/>
				<rect x="156.397" y="-8.5" width="5.85" height="5.84"/>
				<rect x="150.667" y="37.9" fill="#C8782B" width="5.73" height="5.73"/>
				<rect x="150.667" y="32.06" fill="#C8782B" width="5.73" height="5.84"/>
				<rect x="150.667" y="26.33" fill="#C8782B" width="5.73" height="5.73"/>
				<rect x="150.667" y="20.49" fill="#C8782B" width="5.73" height="5.84"/>
				<rect x="150.667" y="14.64" fill="#C8782B" width="5.73" height="5.85"/>
				<rect x="150.667" y="8.91" fill="#C8782B" width="5.73" height="5.73"/>
				<rect x="150.667" y="3.07" fill="#C8782B" width="5.73" height="5.84"/>
				<rect x="150.667" y="-2.66" width="5.73" height="5.73"/>
				<rect x="150.667" y="-8.5" width="5.73" height="5.84"/>
				<rect x="144.827" y="-2.66" width="5.84" height="5.73"/>
				<rect x="144.827" y="-8.5" width="5.84" height="5.84"/>
				<rect x="138.987" y="-2.66" width="5.84" height="5.73"/>
				<rect x="138.987" y="-8.5" fill="#C8782B" width="5.84" height="5.84"/>
				<rect x="133.257" y="-2.66" fill="#C8782B" width="5.73" height="5.73"/>
				<rect x="127.407" y="37.9" width="5.85" height="5.73"/>
				<rect x="127.407" y="32.06" width="5.85" height="5.84"/>
				<rect x="127.407" y="26.33" width="5.85" height="5.73"/>
				<rect x="127.407" y="20.49" width="5.85" height="5.84"/>
				<rect x="127.407" y="14.64" width="5.85" height="5.85"/>
				<rect x="127.407" y="8.91" width="5.85" height="5.73"/>
				<rect x="127.407" y="-2.66" width="5.85" height="5.73"/>
				<rect x="127.407" y="-8.5" width="5.85" height="5.84"/>
				<rect x="121.687" y="37.9" width="5.72" height="5.73"/>
				<rect x="121.687" y="32.06" width="5.72" height="5.84"/>
				<rect x="121.687" y="26.33" width="5.72" height="5.73"/>
				<rect x="121.687" y="20.49" width="5.72" height="5.84"/>
				<rect x="121.687" y="14.64" width="5.72" height="5.85"/>
				<rect x="121.687" y="8.91" width="5.72" height="5.73"/>
				<rect x="121.687" y="-2.66" width="5.72" height="5.73"/>
				<rect x="121.687" y="-8.5" width="5.72" height="5.84"/>
				<rect x="115.837" y="37.9" width="5.85" height="5.73"/>
				<rect x="115.837" y="32.06" width="5.85" height="5.84"/>
				<rect x="115.837" y="14.64" width="5.85" height="5.85"/>
				<rect x="115.837" y="8.91" width="5.85" height="5.73"/>
				<rect x="115.837" y="-2.66" width="5.85" height="5.73"/>
				<rect x="115.837" y="-8.5" width="5.85" height="5.84"/>
				<rect x="110.107" y="37.9" width="5.73" height="5.73"/>
				<rect x="110.107" y="32.06" width="5.73" height="5.84"/>
				<rect x="110.107" y="14.64" width="5.73" height="5.85"/>
				<rect x="110.107" y="8.91" width="5.73" height="5.73"/>
				<rect x="110.107" y="-2.66" width="5.73" height="5.73"/>
				<rect x="110.107" y="-8.5" width="5.73" height="5.84"/>
				<rect x="104.267" y="37.9" width="5.84" height="5.73"/>
				<rect x="104.267" y="32.06" width="5.84" height="5.84"/>
				<rect x="104.267" y="14.64" width="5.84" height="5.85"/>
				<rect x="104.267" y="8.91" width="5.84" height="5.73"/>
				<rect x="104.267" y="-2.66" width="5.84" height="5.73"/>
				<rect x="104.267" y="-8.5" width="5.84" height="5.84"/>
				<rect x="98.417" y="37.9" width="5.85" height="5.73"/>
				<rect x="98.417" y="32.06" width="5.85" height="5.84"/>
				<rect x="98.417" y="14.64" width="5.85" height="5.85"/>
				<rect x="98.417" y="8.91" width="5.85" height="5.73"/>
				<rect x="98.417" y="3.07" width="5.85" height="5.84"/>
				<rect x="98.417" y="-2.66" width="5.85" height="5.73"/>
				<rect x="98.417" y="-8.5" width="5.85" height="5.84"/>
				<rect x="92.697" y="37.9" width="5.72" height="5.73"/>
				<rect x="92.697" y="32.06" width="5.72" height="5.84"/>
				<rect x="92.697" y="14.64" width="5.72" height="5.85"/>
				<rect x="92.697" y="8.91" width="5.72" height="5.73"/>
				<rect x="92.697" y="3.07" width="5.72" height="5.84"/>
				<rect x="92.697" y="-2.66" width="5.72" height="5.73"/>
				<rect x="92.697" y="-8.5" width="5.72" height="5.84"/>
				<rect x="86.847" y="37.9" fill="#C8782B" width="5.85" height="5.73"/>
				<rect x="86.847" y="32.06" width="5.85" height="5.84"/>
				<rect x="86.847" y="14.64" width="5.85" height="5.85"/>
				<rect x="86.847" y="8.91" width="5.85" height="5.73"/>
				<rect x="86.847" y="3.07" width="5.85" height="5.84"/>
				<rect x="86.847" y="-2.66" width="5.85" height="5.73"/>
				<rect x="86.847" y="-8.5" fill="#C8782B" width="5.85" height="5.84"/>
				<rect x="81.117" y="32.06" fill="#C8782B" width="5.73" height="5.84"/>
				<rect x="81.117" y="14.64" fill="#C8782B" width="5.73" height="5.85"/>
				<rect x="81.117" y="8.91" fill="#C8782B" width="5.73" height="5.73"/>
				<rect x="81.117" y="3.07" fill="#C8782B" width="5.73" height="5.84"/>
				<rect x="81.117" y="-2.66" fill="#C8782B" width="5.73" height="5.73"/>
				<rect x="75.277" y="37.9" width="5.84" height="5.73"/>
				<rect x="75.277" y="32.06" width="5.84" height="5.84"/>
				<rect x="75.277" y="26.33" width="5.84" height="5.73"/>
				<rect x="75.277" y="20.49" width="5.84" height="5.84"/>
				<rect x="75.277" y="14.64" width="5.84" height="5.85"/>
				<rect x="75.277" y="8.91" width="5.84" height="5.73"/>
				<rect x="75.277" y="3.07" width="5.84" height="5.84"/>
				<rect x="75.277" y="-2.66" width="5.84" height="5.73"/>
				<rect x="75.277" y="-8.5" width="5.84" height="5.84"/>
				<rect x="69.547" y="37.9" width="5.73" height="5.73"/>
				<rect x="69.547" y="32.06" width="5.73" height="5.84"/>
				<rect x="69.547" y="26.33" width="5.73" height="5.73"/>
				<rect x="69.547" y="20.49" width="5.73" height="5.84"/>
				<rect x="69.547" y="14.64" width="5.73" height="5.85"/>
				<rect x="69.547" y="8.91" width="5.73" height="5.73"/>
				<rect x="69.547" y="3.07" width="5.73" height="5.84"/>
				<rect x="69.547" y="-2.66" width="5.73" height="5.73"/>
				<rect x="69.547" y="-8.5" width="5.73" height="5.84"/>
				<rect x="63.707" y="-2.66" width="5.84" height="5.73"/>
				<rect x="63.707" y="-8.5" width="5.84" height="5.84"/>
				<rect x="57.977" y="20.49" width="5.73" height="5.84"/>
				<rect x="57.977" y="14.64" width="5.73" height="5.85"/>
				<rect x="57.977" y="-2.66" width="5.73" height="5.73"/>
				<rect x="57.977" y="-8.5" width="5.73" height="5.84"/>
				<rect x="52.127" y="20.49" width="5.85" height="5.84"/>
				<rect x="52.127" y="14.64" width="5.85" height="5.85"/>
				<rect x="52.127" y="-2.66" width="5.85" height="5.73"/>
				<rect x="52.127" y="-8.5" width="5.85" height="5.84"/>
				<rect x="46.287" y="37.9" width="5.84" height="5.73"/>
				<rect x="46.287" y="32.06" width="5.84" height="5.84"/>
				<rect x="46.287" y="26.33" width="5.84" height="5.73"/>
				<rect x="46.287" y="20.49" width="5.84" height="5.84"/>
				<rect x="46.287" y="14.64" width="5.84" height="5.85"/>
				<rect x="46.287" y="8.91" width="5.84" height="5.73"/>
				<rect x="46.287" y="3.07" width="5.84" height="5.84"/>
				<rect x="46.287" y="-2.66" width="5.84" height="5.73"/>
				<rect x="46.287" y="-8.5" width="5.84" height="5.84"/>
				<rect x="40.557" y="37.9" width="5.73" height="5.73"/>
				<rect x="40.557" y="32.06" width="5.73" height="5.84"/>
				<rect x="40.557" y="26.33" width="5.73" height="5.73"/>
				<rect x="40.557" y="20.49" width="5.73" height="5.84"/>
				<rect x="40.557" y="14.64" width="5.73" height="5.85"/>
				<rect x="40.557" y="8.91" width="5.73" height="5.73"/>
				<rect x="40.557" y="3.07" width="5.73" height="5.84"/>
				<rect x="40.557" y="-2.66" width="5.73" height="5.73"/>
				<rect x="40.557" y="-8.5" width="5.73" height="5.84"/>
				<rect x="34.717" y="37.9" fill="#C8782B" width="5.84" height="5.73"/>
				<rect x="34.717" y="32.06" width="5.84" height="5.84"/>
				<rect x="34.717" y="26.33" width="5.84" height="5.73"/>
				<rect x="34.717" y="20.49" width="5.84" height="5.84"/>
				<rect x="34.717" y="14.64" width="5.84" height="5.85"/>
				<rect x="34.717" y="8.91" width="5.84" height="5.73"/>
				<rect x="34.717" y="3.07" width="5.84" height="5.84"/>
				<rect x="34.717" y="-2.66" width="5.84" height="5.73"/>
				<rect x="34.717" y="-8.5" fill="#C8782B" width="5.84" height="5.84"/>
				<rect x="28.987" y="32.06" fill="#C8782B" width="5.73" height="5.84"/>
				<rect x="28.987" y="26.33" fill="#C8782B" width="5.73" height="5.73"/>
				<rect x="28.987" y="20.49" fill="#C8782B" width="5.73" height="5.84"/>
				<rect x="28.987" y="14.64" fill="#C8782B" width="5.73" height="5.85"/>
				<rect x="28.987" y="8.91" fill="#C8782B" width="5.73" height="5.73"/>
				<rect x="28.987" y="3.07" fill="#C8782B" width="5.73" height="5.84"/>
				<rect x="28.987" y="-2.66" fill="#C8782B" width="5.73" height="5.73"/>
				<rect x="23.137" y="-2.66" width="5.85" height="5.73"/>
				<rect x="23.137" y="-8.5" width="5.85" height="5.84"/>
				<rect x="17.407" y="-2.66" width="5.73" height="5.73"/>
				<rect x="17.407" y="-8.5" width="5.73" height="5.84"/>
				<rect x="11.567" y="20.49" width="5.84" height="5.84"/>
				<rect x="11.567" y="14.64" width="5.84" height="5.85"/>
				<rect x="11.567" y="-2.66" width="5.84" height="5.73"/>
				<rect x="11.567" y="-8.5" width="5.84" height="5.84"/>
				<rect x="5.727" y="20.49" width="5.84" height="5.84"/>
				<rect x="5.727" y="14.64" width="5.84" height="5.85"/>
				<rect x="5.727" y="-2.66" width="5.84" height="5.73"/>
				<rect x="5.727" y="-8.5" width="5.84" height="5.84"/>
				<rect x="-0.003" y="20.49" width="5.73" height="5.84"/>
				<rect x="-0.003" y="14.64" width="5.73" height="5.85"/>
				<rect x="-0.003" y="-2.66" width="5.73" height="5.73"/>
				<rect x="-0.003" y="-8.5" width="5.73" height="5.84"/>
				<rect x="-5.853" y="37.9" width="5.85" height="5.73"/>
				<rect x="-5.853" y="32.06" width="5.85" height="5.84"/>
				<rect x="-5.853" y="26.33" width="5.85" height="5.73"/>
				<rect x="-5.853" y="20.49" width="5.85" height="5.84"/>
				<rect x="-5.853" y="14.64" width="5.85" height="5.85"/>
				<rect x="-5.853" y="8.91" width="5.85" height="5.73"/>
				<rect x="-5.853" y="3.07" width="5.85" height="5.84"/>
				<rect x="-5.853" y="-2.66" width="5.85" height="5.73"/>
				<rect x="-5.853" y="-8.5" width="5.85" height="5.84"/>
				<rect x="-11.583" y="37.9" width="5.73" height="5.73"/>
				<rect x="-11.583" y="32.06" width="5.73" height="5.84"/>
				<rect x="-11.583" y="26.33" width="5.73" height="5.73"/>
				<rect x="-11.583" y="20.49" width="5.73" height="5.84"/>
				<rect x="-11.583" y="14.64" width="5.73" height="5.85"/>
				<rect x="-11.583" y="8.91" width="5.73" height="5.73"/>
				<rect x="-11.583" y="3.07" width="5.73" height="5.84"/>
				<rect x="-11.583" y="-2.66" width="5.73" height="5.73"/>
				<rect x="-11.583" y="-8.5" width="5.73" height="5.84"/>
				<rect x="-17.423" y="37.9" fill="#C8782B" width="5.84" height="5.73"/>
				<rect x="-17.423" y="32.06" width="5.84" height="5.84"/>
				<rect x="-17.423" y="26.33" width="5.84" height="5.73"/>
				<rect x="-17.423" y="20.49" width="5.84" height="5.84"/>
				<rect x="-17.423" y="14.64" width="5.84" height="5.85"/>
				<rect x="-17.423" y="8.91" width="5.84" height="5.73"/>
				<rect x="-17.423" y="3.07" width="5.84" height="5.84"/>
				<rect x="-17.423" y="-2.66" width="5.84" height="5.73"/>
				<rect x="-17.423" y="-8.5" fill="#C8782B" width="5.84" height="5.84"/>
				<rect x="-23.153" y="32.06" fill="#C8782B" width="5.73" height="5.84"/>
				<rect x="-23.153" y="26.33" fill="#C8782B" width="5.73" height="5.73"/>
				<rect x="-23.153" y="20.49" fill="#C8782B" width="5.73" height="5.84"/>
				<rect x="-23.153" y="14.64" fill="#C8782B" width="5.73" height="5.85"/>
				<rect x="-23.153" y="8.91" fill="#C8782B" width="5.73" height="5.73"/>
				<rect x="-23.153" y="3.07" fill="#C8782B" width="5.73" height="5.84"/>
				<rect x="-23.153" y="-2.66" fill="#C8782B" width="5.73" height="5.73"/>
			</g>
			<g>
			</g>
		</g>
	</g>
</g>
<g id="Layer_2_copy">
</g>
<g id="Layer_2">
	<g>
		<g>
			<polygon fill="#9B9A9A" points="46.41,0 46.41,11.57 17.42,11.57 17.42,23.14 34.83,23.14 34.83,34.83 17.42,34.83 17.42,52.13 
				5.84,52.13 5.84,46.4 0,46.4 0,5.84 5.84,5.84 5.84,0 			"/>
			<polygon fill="#9B9A9A" points="52.14,5.84 57.98,5.84 57.98,0 98.54,0 98.54,52.13 86.97,52.13 86.97,11.57 69.55,11.57 
				69.55,23.14 81.13,23.14 81.13,34.83 69.55,34.83 69.55,52.13 57.98,52.13 57.98,46.4 52.14,46.4 			"/>
			<polygon fill="#9B9A9A" points="110.12,0 150.68,0 150.68,11.57 121.69,11.57 121.69,17.41 150.68,17.41 150.68,52.13 
				110.12,52.13 110.12,46.4 104.27,46.4 104.27,40.56 139.11,40.56 139.11,28.99 104.27,28.99 104.27,5.84 110.12,5.84 			"/>
			<polygon fill="#9B9A9A" points="202.81,0 202.81,11.57 185.4,11.57 185.4,52.13 173.82,52.13 173.82,11.57 156.41,11.57 
				156.41,5.84 162.25,5.84 162.25,0 			"/>
			<polygon fill="#9B9A9A" points="214.39,0 254.95,0 254.95,11.57 225.96,11.57 225.96,40.56 254.95,40.56 254.95,52.13 
				214.39,52.13 214.39,46.4 208.66,46.4 208.66,5.84 214.39,5.84 			"/>
			<polygon fill="#9B9A9A" points="266.521,0 307.081,0 307.081,52.13 295.511,52.13 295.511,11.57 278.091,11.57 278.091,23.14 
				289.78,23.14 289.78,34.83 278.091,34.83 278.091,52.13 266.521,52.13 266.521,46.4 260.79,46.4 260.79,5.84 266.521,5.84 			"/>
			<polygon fill="#9B9A9A" points="359.22,0 359.22,11.57 330.341,11.57 330.341,17.41 359.22,17.41 359.22,52.13 318.661,52.13 
				318.661,46.4 312.931,46.4 312.931,40.56 347.649,40.56 347.649,28.99 312.931,28.99 312.931,5.84 318.661,5.84 318.661,0 			"/>
			<polyline fill="#9B9A9A" points="411.36,0 411.36,11.57 394.05,11.57 394.05,52.13 382.479,52.13 382.479,11.57 365.06,11.57 
				365.06,5.84 370.79,5.84 370.79,0 			"/>
		</g>
		<g>
			<polygon points="52.252,0 52.252,11.57 23.263,11.57 23.263,23.14 40.672,23.14 40.672,34.83 23.263,34.83 23.263,52.13 
				11.683,52.13 11.683,46.4 5.843,46.4 5.843,5.84 11.683,5.84 11.683,0 			"/>
			<polygon points="57.982,5.84 63.823,5.84 63.823,0 104.382,0 104.382,52.13 92.813,52.13 92.813,11.57 75.393,11.57 
				75.393,23.14 86.973,23.14 86.973,34.83 75.393,34.83 75.393,52.13 63.823,52.13 63.823,46.4 57.982,46.4 			"/>
			<polygon points="115.962,0 156.522,0 156.522,11.57 127.533,11.57 127.533,17.41 156.522,17.41 156.522,52.13 115.962,52.13 
				115.962,46.4 110.112,46.4 110.112,40.56 144.953,40.56 144.953,28.99 110.112,28.99 110.112,5.84 115.962,5.84 			"/>
			<polygon points="208.652,0 208.652,11.57 191.243,11.57 191.243,52.13 179.663,52.13 179.663,11.57 162.252,11.57 162.252,5.84 
				168.093,5.84 168.093,0 			"/>
			<polygon points="220.232,0 260.793,0 260.793,11.57 231.803,11.57 231.803,40.56 260.793,40.56 260.793,52.13 220.232,52.13 
				220.232,46.4 214.502,46.4 214.502,5.84 220.232,5.84 			"/>
			<polygon points="272.362,0 312.923,0 312.923,52.13 301.353,52.13 301.353,11.57 283.933,11.57 283.933,23.14 295.622,23.14 
				295.622,34.83 283.933,34.83 283.933,52.13 272.362,52.13 272.362,46.4 266.633,46.4 266.633,5.84 272.362,5.84 			"/>
			<polygon points="365.063,0 365.063,11.57 336.183,11.57 336.183,17.41 365.063,17.41 365.063,52.13 324.503,52.13 324.503,46.4 
				318.772,46.4 318.772,40.56 353.492,40.56 353.492,28.99 318.772,28.99 318.772,5.84 324.503,5.84 324.503,0 			"/>
			<polyline points="417.202,0 417.202,11.57 399.893,11.57 399.893,52.13 388.322,52.13 388.322,11.57 370.902,11.57 370.902,5.84 
				376.633,5.84 376.633,0 			"/>
		</g>
	</g>
</g>
</svg>
