<?xml version="1.0" encoding="UTF-8" standalone="no"?>
<!-- Created with Inkscape (http://www.inkscape.org/) -->

<svg
   xmlns:dc="http://purl.org/dc/elements/1.1/"
   xmlns:cc="http://creativecommons.org/ns#"
   xmlns:rdf="http://www.w3.org/1999/02/22-rdf-syntax-ns#"
   xmlns:svg="http://www.w3.org/2000/svg"
   xmlns="http://www.w3.org/2000/svg"
   version="1.1"
   width="114"
   height="114"
   id="svg2">
  <defs
     id="defs4" />
  <metadata
     id="metadata7">
    <rdf:RDF>
      <cc:Work
         rdf:about="">
        <dc:format>image/svg+xml</dc:format>
        <dc:type
           rdf:resource="http://purl.org/dc/dcmitype/StillImage" />
        <dc:title></dc:title>
      </cc:Work>
    </rdf:RDF>
  </metadata>
  <g
     id="layer1">
    <rect
       width="110"
       height="110"
       x="2"
       y="2"
       id="rect2987"
       style="fill:none;fill-opacity:1;stroke:#3d3d62;stroke-width:4;stroke-miterlimit:4;stroke-opacity:1;stroke-dasharray:none;stroke-dashoffset:0" />
  </g>
  <g
     id="layer2">
    <path
       d="m 12,12 0,80 10,0 0,10 10,0 10,-10 0,-20 20,0 10,-10 0,-10 -30,0 0,-20 60,0 0,-20 z"
       id="path2990"
       style="fill:none;stroke:#3d3d62;stroke-width:2;stroke-linecap:butt;stroke-linejoin:miter;stroke-miterlimit:4;stroke-opacity:1;stroke-dasharray:none" />
  </g>
  <g
     id="layer3">
    <path
       d="m 12,12 0,70 10,0 0,10 20,0 0,-20 20,0 10,-10 0,-10 -30,0 0,-20 60,0 0,-20 z"
       id="path3761"
       style="fill:#3d3d62;fill-opacity:1;stroke:none" />
  </g>
</svg>
